<?xml version="1.0" ?><svg viewBox="0 0 40 40" xmlns="http://www.w3.org/2000/svg"><defs><style>.cls-1{fill:#12100e;}</style></defs><title/><g id="Medium"><path class="cls-1" d="M8,8V32H32V8Zm19.94,5.69-1.29,1.23a.37.37,0,0,0-.14.36v9.07a.37.37,0,0,0,.14.36l1.26,1.23v.28H21.59v-.28l1.3-1.26c.13-.13.13-.17.13-.36V17l-3.62,9.2h-.49L14.69,17v6.16a.88.88,0,0,0,.23.71l1.7,2.05v.28h-4.8v-.28l1.69-2.05a.84.84,0,0,0,.22-.71V16a.62.62,0,0,0-.21-.53L12,13.69v-.27h4.67l3.62,7.92,3.17-7.92h4.46Z"/></g></svg>